solid Mesh
  facet normal 0 1 0
    outer loop
      vertex 18 49.9998 0
      vertex 18 49.9998 7
      vertex 34 49.9998 0
    endloop
  endfacet
  facet normal 0 1 0
    outer loop
      vertex 18 49.9998 7
      vertex 34 49.9998 7
      vertex 34 49.9998 0
    endloop
  endfacet
  facet normal 0 0 -1
    outer loop
      vertex 34 49.9998 7
      vertex 18 49.9998 7
      vertex 34 50.9998 7
    endloop
  endfacet
  facet normal 0 0 -1
    outer loop
      vertex 18 49.9998 7
      vertex 18 50.9998 7
      vertex 34 50.9998 7
    endloop
  endfacet
  facet normal 1 0 0
    outer loop
      vertex 18 49.9998 7
      vertex 18 49.9998 0
      vertex 18 50.9998 7
    endloop
  endfacet
  facet normal 1 0 0
    outer loop
      vertex 18 49.9998 0
      vertex 18 50.9998 0
      vertex 18 50.9998 7
    endloop
  endfacet
  facet normal -1 0 0
    outer loop
      vertex 34 49.9998 0
      vertex 34 49.9998 7
      vertex 34 50.9998 0
    endloop
  endfacet
  facet normal -1 0 0
    outer loop
      vertex 34 49.9998 7
      vertex 34 50.9998 7
      vertex 34 50.9998 0
    endloop
  endfacet
  facet normal -1 0 0
    outer loop
      vertex 34 1.99985 7
      vertex 34 1.99985 0
      vertex 34 0.999849 7
    endloop
  endfacet
  facet normal -1 0 0
    outer loop
      vertex 34 1.99985 0
      vertex 34 0.999849 0
      vertex 34 0.999849 7
    endloop
  endfacet
  facet normal 1 0 0
    outer loop
      vertex 18 1.99985 0
      vertex 18 1.99985 7
      vertex 18 0.999849 0
    endloop
  endfacet
  facet normal 1 0 0
    outer loop
      vertex 18 1.99985 7
      vertex 18 0.999849 7
      vertex 18 0.999849 0
    endloop
  endfacet
  facet normal 0 -1 0
    outer loop
      vertex 34 0.999849 0
      vertex 50.9998 0.999849 0
      vertex 34 0.999849 7
    endloop
  endfacet
  facet normal 0 -1 0
    outer loop
      vertex 50.9998 0.999849 0
      vertex 50.9998 0.999849 10
      vertex 34 0.999849 7
    endloop
  endfacet
  facet normal 0 -1 0
    outer loop
      vertex 34 0.999849 7
      vertex 50.9998 0.999849 10
      vertex 18 0.999849 7
    endloop
  endfacet
  facet normal 0 -1 0
    outer loop
      vertex 50.9998 0.999849 10
      vertex 0.999849 0.999849 10
      vertex 18 0.999849 7
    endloop
  endfacet
  facet normal 0 -1 0
    outer loop
      vertex 18 0.999849 7
      vertex 0.999849 0.999849 10
      vertex 18 0.999849 0
    endloop
  endfacet
  facet normal 0 -1 0
    outer loop
      vertex 0.999849 0.999849 10
      vertex 0.999849 0.999849 0
      vertex 18 0.999849 0
    endloop
  endfacet
  facet normal 0 0 -1
    outer loop
      vertex 18 1.99985 7
      vertex 34 1.99985 7
      vertex 18 0.999849 7
    endloop
  endfacet
  facet normal 0 0 -1
    outer loop
      vertex 34 1.99985 7
      vertex 34 0.999849 7
      vertex 18 0.999849 7
    endloop
  endfacet
  facet normal 0 1 0
    outer loop
      vertex 18 50.9998 7
      vertex 18 50.9998 0
      vertex 0.999849 50.9998 0
    endloop
  endfacet
  facet normal 0 1 0
    outer loop
      vertex 50.9998 50.9998 10
      vertex 50.9998 50.9998 0
      vertex 34 50.9998 0
    endloop
  endfacet
  facet normal 0 1 0
    outer loop
      vertex 34 50.9998 0
      vertex 34 50.9998 7
      vertex 50.9998 50.9998 10
    endloop
  endfacet
  facet normal 0 1 0
    outer loop
      vertex 34 50.9998 7
      vertex 18 50.9998 7
      vertex 50.9998 50.9998 10
    endloop
  endfacet
  facet normal 0 1 0
    outer loop
      vertex 50.9998 50.9998 10
      vertex 18 50.9998 7
      vertex 0.999849 50.9998 10
    endloop
  endfacet
  facet normal 0 1 0
    outer loop
      vertex 18 50.9998 7
      vertex 0.999849 50.9998 0
      vertex 0.999849 50.9998 10
    endloop
  endfacet
  facet normal -1 0 0
    outer loop
      vertex 0.999849 0.999849 10
      vertex 0.999849 50.9998 10
      vertex 0.999849 0.999849 0
    endloop
  endfacet
  facet normal -1 0 0
    outer loop
      vertex 0.999849 50.9998 10
      vertex 0.999849 50.9998 0
      vertex 0.999849 0.999849 0
    endloop
  endfacet
  facet normal 1 0 0
    outer loop
      vertex 50.9998 50.9998 10
      vertex 50.9998 0.999849 10
      vertex 50.9998 50.9998 0
    endloop
  endfacet
  facet normal 1 0 0
    outer loop
      vertex 50.9998 0.999849 10
      vertex 50.9998 0.999849 0
      vertex 50.9998 50.9998 0
    endloop
  endfacet
  facet normal 0 0 1
    outer loop
      vertex 50.9998 0.999849 10
      vertex 50.9998 50.9998 10
      vertex 0.999849 0.999849 10
    endloop
  endfacet
  facet normal 0 0 1
    outer loop
      vertex 50.9998 50.9998 10
      vertex 0.999849 50.9998 10
      vertex 0.999849 0.999849 10
    endloop
  endfacet
  facet normal 0 -1 0
    outer loop
      vertex 18 1.99985 0
      vertex 34 1.99985 0
      vertex 18 1.99985 7
    endloop
  endfacet
  facet normal 0 -1 0
    outer loop
      vertex 34 1.99985 0
      vertex 34 1.99985 7
      vertex 18 1.99985 7
    endloop
  endfacet
  facet normal 0 0 -1
    outer loop
      vertex 34 49.9998 0
      vertex 34 50.9998 0
      vertex 50.9998 50.9998 0
    endloop
  endfacet
  facet normal 0 0 -1
    outer loop
      vertex 18 1.99985 0
      vertex 18 0.999849 0
      vertex 0.999849 0.999849 0
    endloop
  endfacet
  facet normal 0 0 -1
    outer loop
      vertex 50.9998 0.999849 0
      vertex 34 0.999849 0
      vertex 34 1.99985 0
    endloop
  endfacet
  facet normal 0 0 -1
    outer loop
      vertex 0.999849 50.9998 0
      vertex 18 50.9998 0
      vertex 18 49.9998 0
    endloop
  endfacet
  facet normal 0 0 -1
    outer loop
      vertex 50.9998 50.9998 0
      vertex 50.9998 0.999849 0
      vertex 34 49.9998 0
    endloop
  endfacet
  facet normal 0 0 -1
    outer loop
      vertex 50.9998 0.999849 0
      vertex 34 1.99985 0
      vertex 34 49.9998 0
    endloop
  endfacet
  facet normal 0 0 -1
    outer loop
      vertex 34 49.9998 0
      vertex 34 1.99985 0
      vertex 18 49.9998 0
    endloop
  endfacet
  facet normal 0 0 -1
    outer loop
      vertex 34 1.99985 0
      vertex 18 1.99985 0
      vertex 18 49.9998 0
    endloop
  endfacet
  facet normal 0 0 -1
    outer loop
      vertex 18 49.9998 0
      vertex 18 1.99985 0
      vertex 0.999849 50.9998 0
    endloop
  endfacet
  facet normal 0 0 -1
    outer loop
      vertex 18 1.99985 0
      vertex 0.999849 0.999849 0
      vertex 0.999849 50.9998 0
    endloop
  endfacet
endsolid Mesh
