solid Mesh
  facet normal 0 0 -1
    outer loop
      vertex 34 2 0
      vertex 34 1 0
      vertex 18 2 0
    endloop
  endfacet
  facet normal 0 0 -1
    outer loop
      vertex 34 1 0
      vertex 18 1 0
      vertex 18 2 0
    endloop
  endfacet
  facet normal 0 0 1
    outer loop
      vertex 34 1 7
      vertex 34 2 7
      vertex 18 1 7
    endloop
  endfacet
  facet normal 0 0 1
    outer loop
      vertex 34 2 7
      vertex 18 2 7
      vertex 18 1 7
    endloop
  endfacet
  facet normal 0 1 0
    outer loop
      vertex 18 2 7
      vertex 34 2 7
      vertex 18 2 0
    endloop
  endfacet
  facet normal 0 1 0
    outer loop
      vertex 34 2 7
      vertex 34 2 0
      vertex 18 2 0
    endloop
  endfacet
  facet normal 1 0 0
    outer loop
      vertex 34 2 7
      vertex 34 1 7
      vertex 34 2 0
    endloop
  endfacet
  facet normal 1 0 0
    outer loop
      vertex 34 1 7
      vertex 34 1 0
      vertex 34 2 0
    endloop
  endfacet
  facet normal -1 0 0
    outer loop
      vertex 18 1 7
      vertex 18 2 7
      vertex 18 1 0
    endloop
  endfacet
  facet normal -1 0 0
    outer loop
      vertex 18 2 7
      vertex 18 2 0
      vertex 18 1 0
    endloop
  endfacet
  facet normal 0 -1 0
    outer loop
      vertex 34 1 7
      vertex 18 1 7
      vertex 34 1 0
    endloop
  endfacet
  facet normal 0 -1 0
    outer loop
      vertex 18 1 7
      vertex 18 1 0
      vertex 34 1 0
    endloop
  endfacet
endsolid Mesh
