solid Mesh
  facet normal 0 0 -1
    outer loop
      vertex 34 51 0
      vertex 34 50 0
      vertex 18 51 0
    endloop
  endfacet
  facet normal 0 0 -1
    outer loop
      vertex 34 50 0
      vertex 18 50 0
      vertex 18 51 0
    endloop
  endfacet
  facet normal 0 0 1
    outer loop
      vertex 34 50 7
      vertex 34 51 7
      vertex 18 50 7
    endloop
  endfacet
  facet normal 0 0 1
    outer loop
      vertex 34 51 7
      vertex 18 51 7
      vertex 18 50 7
    endloop
  endfacet
  facet normal 0 1 0
    outer loop
      vertex 18 51 7
      vertex 34 51 7
      vertex 18 51 0
    endloop
  endfacet
  facet normal 0 1 0
    outer loop
      vertex 34 51 7
      vertex 34 51 0
      vertex 18 51 0
    endloop
  endfacet
  facet normal 1 0 0
    outer loop
      vertex 34 51 7
      vertex 34 50 7
      vertex 34 51 0
    endloop
  endfacet
  facet normal 1 0 0
    outer loop
      vertex 34 50 7
      vertex 34 50 0
      vertex 34 51 0
    endloop
  endfacet
  facet normal -1 0 0
    outer loop
      vertex 18 50 7
      vertex 18 51 7
      vertex 18 50 0
    endloop
  endfacet
  facet normal -1 0 0
    outer loop
      vertex 18 51 7
      vertex 18 51 0
      vertex 18 50 0
    endloop
  endfacet
  facet normal 0 -1 0
    outer loop
      vertex 34 50 7
      vertex 18 50 7
      vertex 34 50 0
    endloop
  endfacet
  facet normal 0 -1 0
    outer loop
      vertex 18 50 7
      vertex 18 50 0
      vertex 34 50 0
    endloop
  endfacet
endsolid Mesh
