solid Mesh
  facet normal 0 0 -1
    outer loop
      vertex 17.9998 0.999849 7
      vertex 33.9998 0.999849 7
      vertex 17.9998 0 7
    endloop
  endfacet
  facet normal 0 0 -1
    outer loop
      vertex 33.9998 0.999849 7
      vertex 33.9998 0 7
      vertex 17.9998 0 7
    endloop
  endfacet
  facet normal 0 -1 0
    outer loop
      vertex 33.9998 50.9998 0
      vertex 50.9998 50.9998 0
      vertex 33.9998 50.9998 7
    endloop
  endfacet
  facet normal 0 -1 0
    outer loop
      vertex 50.9998 50.9998 0
      vertex 50.9998 50.9998 10
      vertex 33.9998 50.9998 7
    endloop
  endfacet
  facet normal 0 -1 0
    outer loop
      vertex 33.9998 50.9998 7
      vertex 50.9998 50.9998 10
      vertex 17.9998 50.9998 7
    endloop
  endfacet
  facet normal 0 -1 0
    outer loop
      vertex 50.9998 50.9998 10
      vertex 0.999849 50.9998 10
      vertex 17.9998 50.9998 7
    endloop
  endfacet
  facet normal 0 -1 0
    outer loop
      vertex 17.9998 50.9998 7
      vertex 0.999849 50.9998 10
      vertex 17.9998 50.9998 0
    endloop
  endfacet
  facet normal 0 -1 0
    outer loop
      vertex 0.999849 50.9998 10
      vertex 0.999849 50.9998 0
      vertex 17.9998 50.9998 0
    endloop
  endfacet
  facet normal 1 0 0
    outer loop
      vertex 52 52 10
      vertex 52 0 10
      vertex 52 52 0
    endloop
  endfacet
  facet normal 1 0 0
    outer loop
      vertex 52 0 10
      vertex 52 0 0
      vertex 52 52 0
    endloop
  endfacet
  facet normal 1 0 0
    outer loop
      vertex 0.999849 50.9998 10
      vertex 0.999849 0.999849 10
      vertex 0.999849 50.9998 0
    endloop
  endfacet
  facet normal 1 0 0
    outer loop
      vertex 0.999849 0.999849 10
      vertex 0.999849 0.999849 0
      vertex 0.999849 50.9998 0
    endloop
  endfacet
  facet normal 0 1 0
    outer loop
      vertex 17.9998 52 0
      vertex -7.10543e-15 52 0
      vertex 17.9998 52 7
    endloop
  endfacet
  facet normal 0 1 0
    outer loop
      vertex -7.10543e-15 52 0
      vertex -7.10543e-15 52 10
      vertex 17.9998 52 7
    endloop
  endfacet
  facet normal 0 1 0
    outer loop
      vertex 17.9998 52 7
      vertex -7.10543e-15 52 10
      vertex 33.9998 52 7
    endloop
  endfacet
  facet normal 0 1 0
    outer loop
      vertex -7.10543e-15 52 10
      vertex 52 52 10
      vertex 33.9998 52 7
    endloop
  endfacet
  facet normal 0 1 0
    outer loop
      vertex 33.9998 52 7
      vertex 52 52 10
      vertex 33.9998 52 0
    endloop
  endfacet
  facet normal 0 1 0
    outer loop
      vertex 52 52 10
      vertex 52 52 0
      vertex 33.9998 52 0
    endloop
  endfacet
  facet normal 0 1 0
    outer loop
      vertex 17.9998 0.999849 0
      vertex 0.999849 0.999849 0
      vertex 17.9998 0.999849 7
    endloop
  endfacet
  facet normal 0 1 0
    outer loop
      vertex 0.999849 0.999849 0
      vertex 0.999849 0.999849 10
      vertex 17.9998 0.999849 7
    endloop
  endfacet
  facet normal 0 1 0
    outer loop
      vertex 17.9998 0.999849 7
      vertex 0.999849 0.999849 10
      vertex 33.9998 0.999849 7
    endloop
  endfacet
  facet normal 0 1 0
    outer loop
      vertex 0.999849 0.999849 10
      vertex 50.9998 0.999849 10
      vertex 33.9998 0.999849 7
    endloop
  endfacet
  facet normal 0 1 0
    outer loop
      vertex 33.9998 0.999849 7
      vertex 50.9998 0.999849 10
      vertex 33.9998 0.999849 0
    endloop
  endfacet
  facet normal 0 1 0
    outer loop
      vertex 50.9998 0.999849 10
      vertex 50.9998 0.999849 0
      vertex 33.9998 0.999849 0
    endloop
  endfacet
  facet normal -1 -1.36643e-16 0
    outer loop
      vertex 0 0 10
      vertex -7.10543e-15 52 10
      vertex 0 0 0
    endloop
  endfacet
  facet normal -1 -1.36643e-16 0
    outer loop
      vertex -7.10543e-15 52 10
      vertex -7.10543e-15 52 0
      vertex 0 0 0
    endloop
  endfacet
  facet normal 0 0 -1
    outer loop
      vertex 17.9998 0.999849 0
      vertex 17.9998 0 0
      vertex 0.999849 0.999849 0
    endloop
  endfacet
  facet normal 0 0 -1
    outer loop
      vertex 17.9998 0 0
      vertex 0 0 0
      vertex 0.999849 0.999849 0
    endloop
  endfacet
  facet normal 0 0 -1
    outer loop
      vertex 0.999849 0.999849 0
      vertex 0 0 0
      vertex 0.999849 50.9998 0
    endloop
  endfacet
  facet normal 0 0 -1
    outer loop
      vertex 0 0 0
      vertex -7.10543e-15 52 0
      vertex 0.999849 50.9998 0
    endloop
  endfacet
  facet normal 0 0 -1
    outer loop
      vertex 0.999849 50.9998 0
      vertex -7.10543e-15 52 0
      vertex 17.9998 50.9998 0
    endloop
  endfacet
  facet normal 0 0 -1
    outer loop
      vertex -7.10543e-15 52 0
      vertex 17.9998 52 0
      vertex 17.9998 50.9998 0
    endloop
  endfacet
  facet normal 0 0 -1
    outer loop
      vertex 33.9998 50.9998 0
      vertex 33.9998 52 0
      vertex 50.9998 50.9998 0
    endloop
  endfacet
  facet normal 0 0 -1
    outer loop
      vertex 33.9998 52 0
      vertex 52 52 0
      vertex 50.9998 50.9998 0
    endloop
  endfacet
  facet normal 0 0 -1
    outer loop
      vertex 50.9998 50.9998 0
      vertex 52 52 0
      vertex 50.9998 0.999849 0
    endloop
  endfacet
  facet normal 0 0 -1
    outer loop
      vertex 52 52 0
      vertex 52 0 0
      vertex 50.9998 0.999849 0
    endloop
  endfacet
  facet normal 0 0 -1
    outer loop
      vertex 50.9998 0.999849 0
      vertex 52 0 0
      vertex 33.9998 0.999849 0
    endloop
  endfacet
  facet normal 0 0 -1
    outer loop
      vertex 52 0 0
      vertex 33.9998 0 0
      vertex 33.9998 0.999849 0
    endloop
  endfacet
  facet normal 0 -1 0
    outer loop
      vertex 33.9998 0 7
      vertex 33.9998 0 0
      vertex 52 0 0
    endloop
  endfacet
  facet normal 0 -1 0
    outer loop
      vertex 0 0 10
      vertex 0 0 0
      vertex 17.9998 0 0
    endloop
  endfacet
  facet normal 0 -1 0
    outer loop
      vertex 17.9998 0 0
      vertex 17.9998 0 7
      vertex 0 0 10
    endloop
  endfacet
  facet normal 0 -1 0
    outer loop
      vertex 17.9998 0 7
      vertex 33.9998 0 7
      vertex 0 0 10
    endloop
  endfacet
  facet normal 0 -1 0
    outer loop
      vertex 0 0 10
      vertex 33.9998 0 7
      vertex 52 0 10
    endloop
  endfacet
  facet normal 0 -1 0
    outer loop
      vertex 33.9998 0 7
      vertex 52 0 0
      vertex 52 0 10
    endloop
  endfacet
  facet normal 0 0 1
    outer loop
      vertex 0.999849 50.9998 10
      vertex -7.10543e-15 52 10
      vertex 0.999849 0.999849 10
    endloop
  endfacet
  facet normal 0 0 1
    outer loop
      vertex -7.10543e-15 52 10
      vertex 0 0 10
      vertex 0.999849 0.999849 10
    endloop
  endfacet
  facet normal 0 0 1
    outer loop
      vertex 0.999849 0.999849 10
      vertex 0 0 10
      vertex 50.9998 0.999849 10
    endloop
  endfacet
  facet normal 0 0 1
    outer loop
      vertex 0 0 10
      vertex 52 0 10
      vertex 50.9998 0.999849 10
    endloop
  endfacet
  facet normal 0 0 1
    outer loop
      vertex 50.9998 0.999849 10
      vertex 52 0 10
      vertex 50.9998 50.9998 10
    endloop
  endfacet
  facet normal 0 0 1
    outer loop
      vertex 52 0 10
      vertex 52 52 10
      vertex 50.9998 50.9998 10
    endloop
  endfacet
  facet normal 0 0 1
    outer loop
      vertex 50.9998 50.9998 10
      vertex 52 52 10
      vertex 0.999849 50.9998 10
    endloop
  endfacet
  facet normal 0 0 1
    outer loop
      vertex 52 52 10
      vertex -7.10543e-15 52 10
      vertex 0.999849 50.9998 10
    endloop
  endfacet
  facet normal -1 0 0
    outer loop
      vertex 50.9998 0.999849 10
      vertex 50.9998 50.9998 10
      vertex 50.9998 0.999849 0
    endloop
  endfacet
  facet normal -1 0 0
    outer loop
      vertex 50.9998 50.9998 10
      vertex 50.9998 50.9998 0
      vertex 50.9998 0.999849 0
    endloop
  endfacet
  facet normal 1 0 0
    outer loop
      vertex 17.9998 52 7
      vertex 17.9998 50.9998 7
      vertex 17.9998 52 0
    endloop
  endfacet
  facet normal 1 0 0
    outer loop
      vertex 17.9998 50.9998 7
      vertex 17.9998 50.9998 0
      vertex 17.9998 52 0
    endloop
  endfacet
  facet normal -1 0 0
    outer loop
      vertex 33.9998 50.9998 7
      vertex 33.9998 52 7
      vertex 33.9998 50.9998 0
    endloop
  endfacet
  facet normal -1 0 0
    outer loop
      vertex 33.9998 52 7
      vertex 33.9998 52 0
      vertex 33.9998 50.9998 0
    endloop
  endfacet
  facet normal 0 0 -1
    outer loop
      vertex 17.9998 52 7
      vertex 33.9998 52 7
      vertex 17.9998 50.9998 7
    endloop
  endfacet
  facet normal 0 0 -1
    outer loop
      vertex 33.9998 52 7
      vertex 33.9998 50.9998 7
      vertex 17.9998 50.9998 7
    endloop
  endfacet
  facet normal 1 0 0
    outer loop
      vertex 17.9998 0.999849 7
      vertex 17.9998 0 7
      vertex 17.9998 0.999849 0
    endloop
  endfacet
  facet normal 1 0 0
    outer loop
      vertex 17.9998 0 7
      vertex 17.9998 0 0
      vertex 17.9998 0.999849 0
    endloop
  endfacet
  facet normal -1 0 0
    outer loop
      vertex 33.9998 0 7
      vertex 33.9998 0.999849 7
      vertex 33.9998 0 0
    endloop
  endfacet
  facet normal -1 0 0
    outer loop
      vertex 33.9998 0.999849 7
      vertex 33.9998 0.999849 0
      vertex 33.9998 0 0
    endloop
  endfacet
endsolid Mesh
